PathFileType	4	(X/Y/Z)	Walk3.trc
DataRate	CameraRate	NumFrames	NumMarkers	Units	OrigDataRate	OrigDataStartFrame	OrigNumFrames
200.000000	200.000000	4	58	mm	200.000000	174	499
Frame#	Times		LFHD		RFHD		RASI		RACR1		RUA1		RElbow		RFA1		RCAR		LACR1		LUA1		RTH3		RTH2		LLFC		LTB3		LTB2		LMT1		LMT5		LCAR		LTH3		RBHD		RWRU		RLFC		RTB2		LWRR		LASI		LTH2		C7		LElbow		RTH1		RTB4		RMT1		RBack		CLAV		LFA1		RTB3		RTB1		STRN		RToe		LTB1		RWRR		LTB4		LPSI		LTH4		LTH1		LElbowM		LWRU		RPSI		RMMAL		RLMAL		LToe		RTH4		LBHD		LCAL		RMT5		RCAL		T10		LLMAL		LMMAL
			X1	Y1	Z1	X2	Y2	Z2	X3	Y3	Z3	X4	Y4	Z4	X5	Y5	Z5	X6	Y6	Z6	X7	Y7	Z7	X8	Y8	Z8	X9	Y9	Z9	X10	Y10	Z10	X11	Y11	Z11	X12	Y12	Z12	X13	Y13	Z13	X14	Y14	Z14	X15	Y15	Z15	X16	Y16	Z16	X17	Y17	Z17	X18	Y18	Z18	X19	Y19	Z19	X20	Y20	Z20	X21	Y21	Z21	X22	Y22	Z22	X23	Y23	Z23	X24	Y24	Z24	X25	Y25	Z25	X26	Y26	Z26	X27	Y27	Z27	X28	Y28	Z28	X29	Y29	Z29	X30	Y30	Z30	X31	Y31	Z31	X32	Y32	Z32	X33	Y33	Z33	X34	Y34	Z34	X35	Y35	Z35	X36	Y36	Z36	X37	Y37	Z37	X38	Y38	Z38	X39	Y39	Z39	X40	Y40	Z40	X41	Y41	Z41	X42	Y42	Z42	X43	Y43	Z43	X44	Y44	Z44	X45	Y45	Z45	X46	Y46	Z46	X47	Y47	Z47	X48	Y48	Z48	X49	Y49	Z49	X50	Y50	Z50	X51	Y51	Z51	X52	Y52	Z52	X53	Y53	Z53	X54	Y54	Z54	X55	Y55	Z55	X56	Y56	Z56	X57	Y57	Z57	X58	Y58	Z58

174	0.87	-600.09	1561.5	-36.64	-601.07	1558.9	58.194	-632.67	950.03	165.42	-716.38	1353.4	157.84	-728.95	1177.4	260.84	-778.81	1058.6	296.6	-736.14	916.61	315.94	-607.03	801.36	333.72	-732.58	1355.7	-151.45	-768.77	1174.4	-242.37	-804.04	569.4	180.99	-722.07	633.24	181.4	-588.24	472.14	-125.17	-450.75	188.88	-66.584	-493.33	269.3	-116.48	-332.99	79.441	-34.265	-356.41	54.84	-104.54	-783.24	753.85	-303.02	-635.98	577.07	-159.31	-760.67	1529.1	70.135	-681.6	819.71	319.37	-841.17	488.68	158.77	-913.88	257.32	138.37	-778.12	800.66	-259.24	-630.54	935.07	-129.77	-619.08	681.59	-174.56	-798.96	1396.5	13.918	-823.48	1054.9	-262.89	-742.01	722.37	229.9	-892.86	246.68	79.334	-897.45	29.259	51.931	-846.4	1303.1	124.62	-662.09	1312.1	0.39492	-840.16	920.98	-283.91	-928.61	168.72	81.772	-857.22	326.71	84.071	-608.08	1205.1	3.395	-829.58	19.66	92.409	-489.1	357.19	-55.624	-628.05	847.24	280.3	-470.55	272.35	-59.769	-878.28	940.12	-32.672	-671.83	653.54	-178.79	-707.22	726.46	-205.66	-846.42	1030.8	-186.72	-837.51	804.38	-299.74	-878.38	948.46	55.857	-988.45	77.949	22.878	-1005.3	77.182	105.75	-274.93	102.87	-63.854	-775.28	645.64	203.19	-754.49	1525.4	-70.675	-502.32	20.087	-56.711	-932.23	24.896	126.09	-1074	57.196	69.475	-879.78	1132.2	15.794	-454.77	69.852	-95.479	-438.42	78.669	-12.995
175	0.875	-594.2	1560.6	-37.126	-595.32	1558	57.696	-626.4	949.43	165.26	-710.74	1352.6	157.27	-723.02	1176.5	260.27	-772.6	1057.7	295.88	-729.79	915.71	315.34	-600.62	800.55	333.15	-726.75	1354.7	-152.17	-763.22	1173.4	-242.98	-798.58	568.87	180.7	-716.37	632.44	181.05	-581.3	471.53	-125.08	-443.78	188.36	-65.838	-486.09	268.79	-115.9	-326.27	78.078	-32.966	-349.39	53.928	-103.49	-778.82	752.78	-303.79	-629.01	576.44	-159.32	-754.95	1528.4	69.382	-675.24	818.85	318.98	-836.13	488.31	158.53	-911.11	257.57	138.38	-773.26	799.54	-260.02	-623.7	934.3	-129.95	-612.07	680.95	-174.69	-793.2	1395.6	13.196	-818.02	1053.9	-263.18	-735.94	721.62	229.53	-890.29	246.62	79.363	-897.34	29.399	51.98	-840.64	1302	123.85	-656.16	1311.4	-0.20968	-835.11	920.07	-284.18	-926.92	169.09	81.911	-853.74	326.26	83.896	-601.98	1204.4	2.9655	-829.47	19.539	92.395	-482.45	356.57	-54.843	-621.8	846.27	279.66	-463.74	271.78	-58.993	-871.66	939.15	-33.401	-664.83	652.87	-179.05	-700.19	725.73	-206.09	-840.52	1029.7	-186.92	-832.93	803.46	-300.09	-871.85	947.43	55.117	-987.94	79.013	23.225	-1004.6	78.452	106.15	-267.77	101.09	-61.895	-769.53	644.99	202.86	-748.56	1524.7	-71.411	-495.66	20.259	-56.741	-931.98	25.068	126.17	-1073.6	59.197	70.062	-873.53	1131.1	15.055	-447.59	69.507	-95.021	-431.81	78.016	-12.374
176	0.88	-588.3	1559.9	-37.622	-589.57	1557.2	57.188	-620.08	948.86	165.06	-705.09	1351.8	156.68	-717.12	1175.7	259.68	-766.44	1056.7	295.1	-723.53	914.82	314.68	-594.32	799.73	332.58	-720.9	1353.8	-152.92	-757.59	1172.4	-243.61	-792.97	568.33	180.41	-710.54	631.65	180.68	-574.2	471.05	-124.94	-437.28	187.69	-65.059	-479.13	268.21	-115.29	-320.32	76.148	-31.673	-343.25	52.608	-102.47	-774.31	751.7	-304.54	-621.89	575.94	-159.22	-749.23	1527.7	68.604	-668.99	817.99	318.56	-830.91	487.9	158.27	-908.19	257.82	138.41	-768.32	798.41	-260.78	-616.83	933.59	-130.15	-604.97	680.43	-174.75	-787.41	1394.7	12.443	-812.47	1052.8	-263.48	-729.77	720.87	229.14	-887.61	246.55	79.394	-897.21	29.548	52.042	-834.86	1301	123.03	-650.22	1310.7	-0.84453	-829.96	919.16	-284.45	-925.15	169.49	82.061	-850.13	325.77	83.699	-595.86	1203.8	2.5096	-829.36	19.424	92.354	-475.89	355.87	-54.026	-615.63	845.29	279	-457.21	271.09	-58.181	-865.03	938.23	-34.136	-657.73	652.32	-179.19	-693.07	725.09	-206.44	-834.55	1028.6	-187.13	-828.24	802.53	-300.44	-865.29	946.44	54.378	-987.4	80.153	23.62	-1003.9	79.796	106.6	-261.33	98.516	-59.965	-763.64	644.34	202.51	-742.62	1524.1	-72.171	-489.94	20.531	-56.759	-931.71	25.258	126.29	-1073.2	61.315	70.725	-867.26	1130.1	14.286	-441.21	69.059	-94.547	-425.96	77.18	-11.728
177	0.885	-582.4	1559.2	-38.129	-583.83	1556.5	56.669	-613.71	948.3	164.81	-699.43	1351.1	156.08	-711.27	1174.9	259.06	-760.34	1055.8	294.28	-717.34	913.95	313.97	-588.13	798.9	332.01	-715.04	1352.9	-153.7	-751.89	1171.4	-244.26	-787.19	567.77	180.1	-704.56	630.86	180.29	-566.93	470.69	-124.76	-431.23	186.87	-64.255	-472.45	267.58	-114.64	-315.11	73.687	-30.386	-337.96	50.91	-101.48	-769.69	750.63	-305.25	-614.64	575.58	-159.03	-743.51	1527	67.801	-662.83	817.15	318.09	-825.49	487.46	158.01	-905.11	258.07	138.44	-763.29	797.3	-261.51	-609.95	932.94	-130.39	-597.78	680.05	-174.73	-781.6	1393.8	11.66	-806.83	1051.8	-263.79	-723.47	720.13	228.71	-884.82	246.49	79.424	-897.08	29.705	52.114	-829.08	1299.9	122.17	-644.26	1310.1	-1.5094	-824.72	918.25	-284.73	-923.29	169.93	82.22	-846.36	325.26	83.48	-589.72	1203.2	2.0259	-829.25	19.314	92.29	-469.41	355.09	-53.182	-609.55	844.3	278.33	-450.94	270.29	-57.343	-858.37	937.38	-34.869	-650.52	651.89	-179.22	-685.88	724.54	-206.72	-828.51	1027.5	-187.37	-823.45	801.62	-300.79	-858.69	945.5	53.644	-986.82	81.375	24.06	-1003	81.217	107.1	-255.58	95.194	-58.066	-757.62	643.68	202.13	-736.67	1523.4	-72.955	-485.11	20.901	-56.767	-931.41	25.47	126.43	-1072.7	63.562	71.457	-860.98	1129.2	13.491	-435.59	68.522	-94.061	-420.82	76.187	-11.062
